<?xml version="1.0" standalone="no"?>
<!DOCTYPE svg PUBLIC "-//W3C//DTD SVG 20010904//EN"
 "http://www.w3.org/TR/2001/REC-SVG-20010904/DTD/svg10.dtd">
<svg version="1.0" xmlns="http://www.w3.org/2000/svg"
 width="600.000000pt" height="600.000000pt" viewBox="0 0 600.000000 600.000000"
 preserveAspectRatio="xMidYMid meet">

<g transform="translate(0.000000,600.000000) scale(0.100000,-0.100000)"
fill="#000000" stroke="none">
<path d="M0 3000 l0 -3000 3000 0 3000 0 0 3000 0 3000 -3000 0 -3000 0 0
-3000z m1425 1740 l610 -609 79 -16 c44 -9 109 -28 145 -41 36 -14 63 -22 60
-20 -2 3 -294 296 -649 651 -354 355 -638 645 -630 645 8 0 314 -299 680 -665
541 -541 677 -672 730 -703 83 -47 272 -235 320 -317 25 -43 126 -151 347
-375 l313 -315 0 100 0 100 -1087 1087 c-599 599 -1081 1088 -1073 1088 8 0
497 -482 1085 -1071 l1070 -1070 3 98 3 97 -973 973 c-535 535 -968 973 -963
973 5 0 443 -433 972 -962 l963 -963 0 110 0 110 -847 848 c-467 466 -850 851
-853 855 -2 4 308 -305 690 -685 382 -381 698 -693 701 -693 3 0 4 13 1 29 -4
31 21 89 44 98 7 3 14 8 14 12 0 3 -277 283 -615 621 -338 338 -610 617 -604
619 6 2 291 -276 633 -618 l621 -621 100 0 100 0 -620 620 c-341 341 -613 620
-605 620 8 0 294 -279 635 -620 l619 -620 101 0 100 0 -620 620 c-341 341
-615 620 -610 620 6 0 289 -279 630 -620 l620 -620 102 0 c57 0 103 3 103 8 0
4 -274 281 -610 617 -335 335 -607 611 -604 614 3 3 285 -275 627 -617 l623
-623 97 3 98 3 -616 615 c-338 338 -610 617 -604 619 6 2 293 -278 638 -622
l626 -625 93 -6 c51 -4 100 -9 110 -13 9 -3 -269 281 -618 631 -349 350 -628
636 -620 636 8 0 301 -286 650 -635 349 -350 644 -638 655 -640 11 -2 69 -16
128 -30 60 -14 112 -25 115 -25 4 0 -292 300 -658 667 -366 368 -601 605 -522
528 78 -77 382 -380 675 -673 305 -306 548 -542 570 -553 55 -29 125 -96 149
-144 11 -22 115 -137 237 -260 l216 -220 -209 205 c-114 113 -205 196 -202
185 13 -46 26 -131 26 -174 l0 -47 190 -189 c104 -105 190 -197 190 -205 0 -8
-84 70 -188 173 l-187 187 -18 -82 -17 -83 206 -206 c114 -114 205 -212 203
-218 -2 -6 -98 83 -213 198 l-209 210 -27 -42 c-15 -23 -34 -48 -44 -56 -16
-13 5 -37 240 -272 142 -142 256 -260 253 -263 -3 -3 -119 109 -259 249 -140
140 -258 255 -262 255 -11 0 -128 -72 -128 -78 0 -4 145 -152 323 -329 177
-178 324 -329 326 -336 2 -6 -149 139 -335 324 l-339 337 -72 -27 -73 -27 410
-409 c225 -226 410 -417 410 -425 0 -8 -190 175 -422 407 l-423 422 -38 -8
c-21 -5 -40 -11 -42 -13 -2 -2 21 -16 50 -32 69 -36 173 -131 215 -196 18 -27
52 -96 76 -152 44 -102 46 -104 197 -256 131 -131 157 -153 191 -159 53 -8 85
-39 93 -88 4 -30 18 -53 55 -91 28 -29 49 -57 47 -63 -2 -6 -26 11 -53 38
l-48 49 -22 -25 c-17 -20 -35 -27 -75 -31 l-53 -5 129 -131 128 -131 -135 133
-135 132 -110 0 -110 0 243 -243 c133 -133 242 -247 242 -252 0 -5 -114 104
-253 243 l-253 253 -97 -3 -98 -3 350 -350 c193 -192 351 -357 351 -365 0 -8
-165 150 -368 353 -309 309 -372 367 -395 367 -38 0 -87 49 -87 87 0 24 -58
86 -375 403 l-375 375 0 -100 0 -100 801 -801 c441 -441 800 -807 798 -813 -2
-6 -362 347 -799 784 l-795 795 -3 -102 -3 -102 103 -103 103 -103 56 0 c87 0
115 -14 135 -66 14 -37 15 -51 6 -82 l-12 -37 605 -605 c333 -333 605 -610
605 -615 0 -5 -274 264 -609 599 -554 554 -610 607 -629 597 -11 -6 -54 -11
-94 -11 l-73 0 670 -670 c368 -368 665 -670 660 -670 -5 0 -312 302 -680 670
l-671 671 -97 -3 -98 -3 665 -665 c366 -366 661 -667 654 -669 -6 -2 -313 299
-682 668 l-671 671 -105 0 -105 0 670 -670 c368 -368 665 -670 660 -670 -6 0
-311 302 -680 670 l-670 670 -105 0 -105 0 670 -670 c368 -368 665 -670 660
-670 -6 0 -312 302 -680 670 -617 617 -673 670 -703 670 -18 0 -42 5 -53 10
-25 14 -49 62 -49 97 0 23 -28 56 -150 178 -118 117 -153 147 -160 135 -4 -8
-24 -35 -44 -60 l-36 -45 828 -827 c455 -456 822 -828 817 -828 -5 0 -380 370
-832 822 l-822 822 -49 -45 c-28 -24 -50 -47 -51 -50 -1 -3 345 -352 769 -775
423 -423 764 -771 758 -773 -6 -2 -356 342 -778 764 l-768 768 -59 -38 c-32
-21 -60 -40 -63 -42 -2 -2 52 -59 120 -128 l123 -123 36 19 c44 23 63 24 107
3 65 -31 96 -128 58 -183 -17 -23 -14 -26 492 -533 280 -281 503 -508 496
-506 -7 2 -238 228 -513 503 -441 441 -502 498 -517 487 -9 -7 -37 -22 -62
-34 -25 -11 -47 -22 -50 -25 -2 -2 205 -213 460 -468 256 -256 460 -465 455
-465 -6 0 -219 209 -474 464 l-463 463 -67 -19 c-36 -10 -73 -21 -81 -24 -9
-3 138 -157 425 -444 242 -242 435 -440 430 -440 -6 0 -208 198 -449 439
l-439 439 -56 -5 c-31 -3 -80 -1 -110 5 l-54 10 444 -444 c244 -244 439 -444
434 -444 -6 0 -210 201 -455 446 -330 330 -458 452 -495 471 -74 38 -118 76
-197 170 -110 132 -263 233 -353 233 l-40 0 660 -661 c363 -364 654 -659 647
-657 -8 2 -312 301 -675 664 l-662 661 -75 18 c-77 19 -116 31 -185 60 -31 13
113 -136 670 -694 390 -391 705 -711 700 -711 -6 0 -334 324 -730 721 -517
517 -739 733 -787 764 -96 63 -217 183 -287 283 -33 48 -105 132 -160 187 -56
55 -101 104 -101 110 0 5 43 -33 96 -85 53 -52 93 -86 89 -75 -31 84 -55 162
-65 211 -10 48 -21 67 -64 112 -68 71 -73 91 -6 27 l52 -50 -5 109 -5 109 -46
46 c-25 26 -46 51 -46 56 0 5 22 -12 49 -39 l48 -47 7 97 7 97 -55 56 c-31 31
-56 61 -56 66 0 5 26 -17 59 -49 l58 -58 22 70 c11 39 21 76 21 84 0 7 -36 49
-80 93 -44 44 -80 84 -80 90 0 5 38 -28 85 -75 46 -46 86 -82 89 -79 2 2 18
33 35 67 l32 64 -118 119 c-65 66 -120 125 -122 132 -2 6 54 -44 123 -113 108
-106 128 -122 137 -108 5 9 25 37 43 61 l34 44 -169 169 c-93 93 -169 176
-169 184 0 8 77 -63 172 -158 94 -95 174 -171 178 -170 4 2 29 23 55 47 l47
44 -228 228 c-125 125 -226 230 -223 233 3 3 108 -98 233 -223 l228 -228 59
40 c33 23 59 43 59 46 0 4 -130 137 -290 296 -159 159 -290 294 -290 300 0 5
135 -125 299 -289 l300 -300 70 35 71 34 -370 370 c-203 204 -370 374 -370
380 0 5 170 -160 378 -367 l377 -377 75 22 c41 11 77 23 80 24 2 2 -202 210
-454 462 -252 252 -457 464 -455 470 2 6 215 -201 474 -459 309 -310 474 -469
485 -466 8 3 48 8 89 12 l73 7 -558 558 c-308 308 -554 559 -549 559 6 0 262
-252 569 -559 l560 -560 103 -3 c57 -2 103 -1 103 2 0 3 -271 276 -602 607
-332 332 -598 603 -593 603 5 0 284 -274 620 -610z m3030 -260 c478 -478 867
-871 864 -874 -3 -3 -398 388 -879 869 -481 481 -870 875 -865 875 6 0 401
-391 880 -870z m114 116 c414 -414 752 -758 750 -765 -2 -6 -348 334 -769 754
-420 421 -758 765 -750 765 8 0 354 -339 769 -754z m115 115 c351 -351 637
-644 635 -650 -2 -6 -296 281 -654 639 -357 357 -643 650 -635 650 8 0 302
-288 654 -639z m116 114 c288 -288 522 -526 519 -529 -3 -3 -243 233 -534 524
-292 292 -525 530 -520 530 6 0 246 -236 535 -525z m115 115 c225 -225 407
-411 404 -414 -3 -3 -191 181 -419 409 -228 228 -410 415 -405 415 6 0 194
-184 420 -410z m114 116 c161 -161 292 -298 290 -304 -2 -6 -141 126 -309 293
-167 168 -298 305 -290 305 8 0 147 -132 309 -294z m116 114 c98 -98 177 -181
174 -184 -3 -3 -88 78 -189 179 -102 102 -180 185 -175 185 6 0 91 -81 190
-180z m115 115 c35 -35 62 -67 59 -69 -3 -3 -36 26 -74 64 -38 39 -65 70 -59
70 5 0 38 -29 74 -65z m-2776 -4604 c-6 -7 -1834 1821 -1834 1834 0 5 414
-404 920 -910 505 -505 917 -921 914 -924z m-235 0 c-15 -5 -1599 1579 -1599
1599 0 8 362 -347 805 -790 443 -443 800 -807 794 -809z m-225 0 c-6 -6 0 -11
-755 743 -340 341 -619 624 -619 630 0 6 310 -299 690 -679 379 -379 687 -691
684 -694z m-230 0 c-6 -7 -1144 1131 -1144 1144 0 5 259 -249 575 -565 316
-316 572 -576 569 -579z m-231 -1 c-5 -6 -913 902 -913 913 0 5 206 -197 459
-450 252 -252 456 -460 454 -463z m-234 1 c-15 -5 -679 659 -679 679 0 8 155
-140 345 -330 190 -190 340 -347 334 -349z m-225 0 c-8 -9 -454 436 -454 454
0 5 103 -93 230 -220 126 -126 227 -231 224 -234z m-230 0 c-6 -7 -224 211
-224 224 0 5 52 -42 115 -105 63 -63 112 -116 109 -119z"/>
<path d="M1675 3899 c-27 -5 -57 -12 -65 -15 -9 -3 158 -177 495 -514 309
-309 512 -505 516 -498 4 6 10 47 14 91 l7 80 -433 433 c-351 351 -439 434
-459 433 -14 -1 -47 -5 -75 -10z"/>
<path d="M1810 3908 c0 -2 186 -190 413 -417 272 -272 413 -407 415 -396 5 23
-17 185 -28 204 -5 9 -141 148 -303 310 l-295 294 -101 5 c-56 2 -101 3 -101
0z"/>
<path d="M3305 3780 l120 -120 3 101 c4 138 3 139 -137 139 l-106 0 120 -120z"/>
<path d="M3720 3867 c0 -30 28 -62 315 -348 348 -347 315 -324 424 -293 l54
16 -329 329 -329 329 -67 0 -68 0 0 -33z"/>
<path d="M3890 3894 c0 -13 623 -634 636 -634 13 0 68 58 84 89 12 22 0 35
-246 282 l-259 259 -107 6 c-63 4 -108 3 -108 -2z"/>
<path d="M2060 3882 c0 -4 122 -129 270 -277 149 -148 270 -264 270 -258 0 7
-11 42 -25 78 -64 172 -192 319 -345 399 -67 35 -170 70 -170 58z"/>
<path d="M4375 3641 c196 -197 251 -247 256 -233 12 33 19 147 10 161 -5 8
-71 77 -147 152 l-137 138 -66 10 c-36 5 -88 13 -116 16 l-50 6 250 -250z"/>
<path d="M1498 3843 c-32 -14 -58 -29 -58 -32 0 -13 1128 -1133 1133 -1125 2
5 14 40 26 79 l22 69 -518 518 c-285 285 -525 518 -533 518 -8 0 -41 -12 -72
-27z"/>
<path d="M4515 3732 c65 -67 121 -120 123 -117 2 2 -3 26 -12 53 -29 88 -107
156 -201 178 -26 5 -12 -12 90 -114z"/>
<path d="M1361 3760 c-28 -22 -51 -44 -51 -48 0 -4 265 -272 589 -596 l589
-589 26 42 c15 23 32 53 38 67 11 24 -9 46 -558 595 -313 313 -572 569 -576
569 -3 0 -29 -18 -57 -40z"/>
<path d="M3720 3705 l0 -100 214 -214 214 -214 79 7 c43 4 81 10 85 14 4 4
-127 142 -292 307 l-300 300 0 -100z"/>
<path d="M1250 3646 c-24 -31 -40 -60 -36 -64 3 -4 268 -269 588 -590 l582
-582 29 27 c16 16 37 40 47 54 l19 25 -593 593 -594 593 -42 -56z"/>
<path d="M3720 3469 l0 -104 98 -98 97 -97 98 0 c53 0 97 4 97 8 0 5 -331 342
-385 391 -3 2 -5 -43 -5 -100z"/>
<path d="M1178 3538 c-8 -13 -22 -42 -33 -66 l-19 -43 560 -560 560 -560 63
42 63 42 -583 583 c-321 321 -587 584 -590 584 -4 0 -13 -10 -21 -22z"/>
<path d="M2850 3519 c0 -2 11 -37 25 -77 14 -40 30 -102 36 -137 l12 -63 254
-254 253 -253 0 105 0 105 -282 282 c-321 320 -298 298 -298 292z"/>
<path d="M1117 3403 c-2 -4 -13 -41 -22 -81 l-18 -74 501 -501 501 -501 53 17
c30 9 63 23 73 31 19 14 -10 45 -531 566 -304 304 -554 548 -557 543z"/>
<path d="M3720 3260 l0 -90 92 0 91 0 -89 90 c-48 50 -90 90 -91 90 -2 0 -3
-40 -3 -90z"/>
<path d="M1065 3128 l-7 -91 409 -409 408 -410 63 7 c34 3 76 8 93 12 30 6 22
15 -457 494 -269 269 -492 489 -495 489 -4 0 -10 -41 -14 -92z"/>
<path d="M2930 3110 l0 -105 250 -250 250 -250 0 105 0 105 -250 250 -250 250
0 -105z"/>
<path d="M1072 2928 c16 -159 1 -136 291 -426 l262 -261 65 -10 c36 -6 87 -11
115 -11 l50 0 -390 390 c-214 215 -392 390 -396 390 -3 0 -2 -33 3 -72z"/>
<path d="M2924 2904 c-5 -44 -9 -85 -9 -92 0 -7 115 -128 255 -268 l255 -255
3 98 3 97 -249 249 -249 249 -9 -78z"/>
<path d="M3720 2932 c0 -16 725 -752 747 -759 4 -2 16 11 25 27 13 23 26 31
58 36 l42 7 -353 353 -354 354 -82 0 c-73 0 -83 -2 -83 -18z"/>
<path d="M4250 2605 c190 -190 348 -345 352 -345 8 0 -127 337 -144 357 -7 8
-13 22 -14 30 -8 54 -157 214 -234 253 -40 19 -29 6 95 -119 77 -78 137 -141
134 -141 -3 0 -70 65 -149 145 -162 163 -165 165 -300 165 l-85 0 345 -345z"/>
<path d="M2882 2698 l-23 -82 188 -188 188 -188 97 0 c54 0 98 3 98 8 0 4
-118 125 -262 269 l-263 263 -23 -82z"/>
<path d="M1131 2678 c63 -162 183 -299 323 -370 161 -82 158 -76 -99 182 -132
132 -241 240 -242 240 -2 0 7 -24 18 -52z"/>
<path d="M2815 2534 l-36 -67 148 -149 147 -148 16 25 c14 24 49 40 98 47 19
3 -4 30 -153 178 -97 96 -177 176 -179 178 -2 2 -20 -27 -41 -64z"/>
<path d="M4846 2383 c26 -59 49 -116 51 -125 5 -15 18 -18 81 -18 l76 0 -90
93 c-49 50 -106 107 -126 125 l-38 34 46 -109z"/>
<path d="M3720 2330 l0 -90 92 0 93 0 -90 90 c-49 50 -91 90 -92 90 -2 0 -3
-40 -3 -90z"/>
<path d="M2331 2088 l-63 -31 125 -125 126 -126 38 12 c21 6 53 21 72 33 l34
20 -124 125 c-68 68 -128 123 -134 123 -5 0 -39 -14 -74 -31z"/>
<path d="M2163 2031 c-34 -9 -65 -19 -68 -23 -10 -10 109 -112 185 -158 68
-41 81 -45 150 -48 l75 -4 -125 126 c-69 69 -132 125 -140 125 -8 -1 -43 -9
-77 -18z"/>
<path d="M2050 2002 c0 -5 12 -14 27 -21 28 -13 28 -13 9 8 -20 22 -36 27 -36
13z"/>
</g>
</svg>
